<svg width="35" height="30" viewBox="0 0 35 30" fill="none" xmlns="http://www.w3.org/2000/svg">
<mask id="path-1-inside-1_349_8796" fill="white">
<path fill-rule="evenodd" clip-rule="evenodd" d="M5.92759 25.8013C5.71717 25.1089 4.82254 24.5172 3.68336 24.3858C2.3026 24.2265 1.08544 24.8038 0.96476 25.6752C0.884345 26.2559 1.31109 26.8206 2.01334 27.1799C1.97536 27.2784 1.94825 27.3818 1.93338 27.4892C1.81595 28.3371 2.50551 29.115 3.47356 29.2266C4.04815 29.2929 4.59171 29.1096 4.96319 28.7723C5.04698 28.7933 5.13352 28.8092 5.22242 28.8194C6.19047 28.9311 7.07042 28.3342 7.18784 27.4863C7.29359 26.7227 6.74483 26.0158 5.92759 25.8013Z"/>
</mask>
<path d="M5.92759 25.8013L4.9708 26.092L5.13326 26.6266L5.67368 26.7685L5.92759 25.8013ZM3.68336 24.3858L3.56879 25.3792L3.68336 24.3858ZM0.96476 25.6752L1.95531 25.8124L0.96476 25.6752ZM2.01334 27.1799L2.9463 27.5399L3.27044 26.6999L2.46884 26.2897L2.01334 27.1799ZM1.93338 27.4892L0.942829 27.352L0.942829 27.352L1.93338 27.4892ZM3.47356 29.2266L3.35898 30.2201L3.47356 29.2266ZM4.96319 28.7723L5.2066 27.8023L4.68733 27.672L4.29096 28.0319L4.96319 28.7723ZM5.22242 28.8194L5.10784 29.8128L5.22242 28.8194ZM7.18784 27.4863L6.1973 27.3491V27.3491L7.18784 27.4863ZM6.88439 25.5105C6.68908 24.8678 6.21533 24.375 5.6925 24.0407C5.15889 23.6995 4.5022 23.4736 3.79794 23.3924L3.56879 25.3792C4.0037 25.4294 4.36392 25.5651 4.61503 25.7256C4.87691 25.8931 4.95569 26.0423 4.9708 26.092L6.88439 25.5105ZM3.79794 23.3924C2.94852 23.2944 2.10688 23.4161 1.42298 23.7405C0.754877 24.0574 0.0973687 24.6488 -0.0257868 25.5381L1.95531 25.8124C1.95557 25.8105 1.95635 25.8058 1.96086 25.7964C1.96569 25.7863 1.9763 25.768 1.99832 25.7429C2.04413 25.6906 2.1321 25.6177 2.28008 25.5475C2.58012 25.4052 3.03744 25.3179 3.56879 25.3792L3.79794 23.3924ZM-0.0257868 25.5381C-0.192642 26.7429 0.698728 27.6306 1.55784 28.0702L2.46884 26.2897C2.22655 26.1657 2.08138 26.0305 2.00981 25.9301C1.97559 25.8821 1.96274 25.8488 1.95815 25.8325C1.95412 25.8183 1.95515 25.8135 1.95531 25.8124L-0.0257868 25.5381ZM1.08038 26.82C1.01517 26.989 0.968442 27.167 0.942829 27.352L2.92392 27.6264C2.92806 27.5965 2.93555 27.5678 2.9463 27.5399L1.08038 26.82ZM0.942829 27.352C0.731692 28.8766 1.96264 30.059 3.35898 30.2201L3.58814 28.2332C3.04838 28.171 2.90021 27.7976 2.92392 27.6264L0.942829 27.352ZM3.35898 30.2201C4.20943 30.3181 5.04263 30.0509 5.63542 29.5126L4.29096 28.0319C4.14078 28.1683 3.88687 28.2677 3.58814 28.2332L3.35898 30.2201ZM5.337 27.826C5.29142 27.8207 5.24791 27.8127 5.2066 27.8023L4.71978 29.7422C4.84604 29.7739 4.97563 29.7976 5.10784 29.8128L5.337 27.826ZM6.1973 27.3491C6.17004 27.5459 5.88592 27.8893 5.337 27.826L5.10784 29.8128C6.49502 29.9728 7.97079 29.1225 8.17839 27.6235L6.1973 27.3491ZM5.67368 26.7685C6.10682 26.8822 6.21958 27.1882 6.1973 27.3491L8.17839 27.6235C8.36761 26.2571 7.38285 25.1494 6.18151 24.8341L5.67368 26.7685Z" fill="black" mask="url(#path-1-inside-1_349_8796)"/>
<mask id="path-3-inside-2_349_8796" fill="white">
<path fill-rule="evenodd" clip-rule="evenodd" d="M13.0494 26.5885C10.393 26.2767 8.35406 24.6286 8.00917 22.6909C7.44921 22.8313 6.85057 22.9073 6.22852 22.9073C3.09903 22.9073 0.562066 20.9844 0.562066 18.6123C0.562066 17.6996 0.93767 16.8534 1.57811 16.1577C0.608338 15.2873 0 14.0348 0 12.6428C0 10.014 2.16941 7.88302 4.84552 7.88302C5.13314 7.88302 5.41491 7.90763 5.68876 7.95484C5.78382 3.54773 10.0138 0 15.218 0C19.5827 0 23.2622 2.49554 24.3917 5.90061C25.212 5.6676 26.093 5.54102 27.0101 5.54102C31.4224 5.54102 34.9992 8.47117 34.9992 12.0857C34.9992 14.5499 33.3368 16.6959 30.8807 17.8124C31.2385 18.5794 31.4362 19.4212 31.4362 20.3043C31.4362 23.8778 28.2 26.7746 24.2079 26.7746C21.9934 26.7746 20.0115 25.8832 18.6856 24.4793C17.6531 25.979 15.4492 26.8701 13.0494 26.5885Z"/>
</mask>
<path d="M8.00917 22.6909L8.99369 22.5157L8.80583 21.4603L7.76601 21.721L8.00917 22.6909ZM13.0494 26.5885L13.166 25.5953H13.166L13.0494 26.5885ZM1.57811 16.1577L2.31386 16.8349L2.9997 16.0898L2.24605 15.4134L1.57811 16.1577ZM5.68876 7.95484L5.51889 8.9403L6.66347 9.1376L6.68852 7.9764L5.68876 7.95484ZM24.3917 5.90061L23.4426 6.21546L23.744 7.12416L24.665 6.86256L24.3917 5.90061ZM30.8807 17.8124L30.4668 16.902L29.5474 17.32L29.9744 18.2352L30.8807 17.8124ZM18.6856 24.4793L19.4126 23.7927L18.5633 22.8934L17.8619 23.9122L18.6856 24.4793ZM7.02464 22.8662C7.4717 25.3778 9.99783 27.2372 12.9329 27.5817L13.166 25.5953C10.7881 25.3163 9.23641 23.8793 8.99369 22.5157L7.02464 22.8662ZM6.22852 23.9073C6.93179 23.9073 7.61212 23.8214 8.25233 23.6609L7.76601 21.721C7.2863 21.8412 6.76935 21.9073 6.22852 21.9073V23.9073ZM-0.437934 18.6123C-0.437934 20.1791 0.402353 21.5251 1.61768 22.4463C2.83235 23.3669 4.46584 23.9073 6.22852 23.9073V21.9073C4.86171 21.9073 3.66197 21.4862 2.82579 20.8524C1.99026 20.2191 1.56207 19.4176 1.56207 18.6123H-0.437934ZM0.842363 15.4804C0.0590399 16.3314 -0.437934 17.4115 -0.437934 18.6123H1.56207C1.56207 17.9878 1.8163 17.3755 2.31386 16.8349L0.842363 15.4804ZM-1 12.6428C-1 14.3337 -0.259583 15.852 0.910181 16.9019L2.24605 15.4134C1.47626 14.7226 1 13.736 1 12.6428H-1ZM4.84552 6.88302C1.63404 6.88302 -1 9.445 -1 12.6428H1C1 10.5831 2.70479 8.88302 4.84552 8.88302V6.88302ZM5.85862 6.96937C5.52889 6.91253 5.19029 6.88302 4.84552 6.88302V8.88302C5.07599 8.88302 5.30092 8.90273 5.51889 8.9403L5.85862 6.96937ZM15.218 -1C9.6217 -1 4.7988 2.84233 4.68899 7.93327L6.68852 7.9764C6.76884 4.25312 10.4059 1 15.218 1V-1ZM25.3409 5.58577C24.0523 1.70128 19.9346 -1 15.218 -1V1C19.2309 1 22.4721 3.2898 23.4426 6.21546L25.3409 5.58577ZM27.0101 4.54102C26.0011 4.54102 25.0281 4.68029 24.1185 4.93867L24.665 6.86256C25.396 6.65492 26.185 6.54102 27.0101 6.54102V4.54102ZM35.9992 12.0857C35.9992 7.74165 31.7789 4.54102 27.0101 4.54102V6.54102C31.0658 6.54102 33.9992 9.20069 33.9992 12.0857H35.9992ZM31.2945 18.7228C34.015 17.4862 35.9992 15.0345 35.9992 12.0857H33.9992C33.9992 14.0652 32.6587 15.9057 30.4668 16.902L31.2945 18.7228ZM32.4362 20.3043C32.4362 19.2698 32.2042 18.284 31.7869 17.3896L29.9744 18.2352C30.2728 18.8747 30.4362 19.5726 30.4362 20.3043H32.4362ZM24.2079 27.7746C28.6452 27.7746 32.4362 24.5313 32.4362 20.3043H30.4362C30.4362 23.2242 27.7548 25.7746 24.2079 25.7746V27.7746ZM17.9586 25.1659C19.4787 26.7755 21.7262 27.7746 24.2079 27.7746V25.7746C22.2607 25.7746 20.5442 24.9909 19.4126 23.7927L17.9586 25.1659ZM12.9329 27.5817C15.6035 27.8951 18.2163 26.9244 19.5092 25.0463L17.8619 23.9122C17.0899 25.0335 15.295 25.8452 13.166 25.5953L12.9329 27.5817Z" fill="black" mask="url(#path-3-inside-2_349_8796)"/>
<path d="M10.1279 14.7417C10.1279 15.8478 9.25139 16.7354 8.18116 16.7354C7.11093 16.7354 6.23438 15.8478 6.23438 14.7417C6.23438 13.6356 7.11093 12.748 8.18116 12.748C9.25139 12.748 10.1279 13.6356 10.1279 14.7417Z" fill="#D9D9D9" stroke="black" stroke-width="0.5"/>
<path d="M26.9404 14.7417C26.9404 15.8478 26.0639 16.7354 24.9937 16.7354C23.9234 16.7354 23.0469 15.8478 23.0469 14.7417C23.0469 13.6356 23.9234 12.748 24.9937 12.748C26.0639 12.748 26.9404 13.6356 26.9404 14.7417Z" fill="#D9D9D9" stroke="black" stroke-width="0.5"/>
<path d="M18.5342 14.7417C18.5342 15.8478 17.6576 16.7354 16.5874 16.7354C15.5172 16.7354 14.6406 15.8478 14.6406 14.7417C14.6406 13.6356 15.5172 12.748 16.5874 12.748C17.6576 12.748 18.5342 13.6356 18.5342 14.7417Z" fill="#D9D9D9" stroke="black" stroke-width="0.5"/>
</svg>
